<svg width="1440" height="2135" viewBox="0 0 1440 2135" fill="none" xmlns="http://www.w3.org/2000/svg">
<g clip-path="url(#clip0_708_41)">
<rect width="1440" height="2135" fill="url(#paint0_radial_708_41)"/>
<mask id="path-1-outside-1_708_41" maskUnits="userSpaceOnUse" x="-15" y="434" width="605" height="1180" fill="black">
<rect fill="white" x="-15" y="434" width="605" height="1180"/>
<path d="M0 1599C152.499 1599 298.753 1538.42 406.586 1430.59C514.42 1322.75 575 1176.5 575 1024C575 871.501 514.42 725.247 406.586 617.414C298.753 509.58 152.5 449 0.00012207 449L0 1024V1599Z"/>
</mask>
<path d="M0 1599C152.499 1599 298.753 1538.42 406.586 1430.59C514.42 1322.75 575 1176.5 575 1024C575 871.501 514.42 725.247 406.586 617.414C298.753 509.58 152.5 449 0.00012207 449L0 1024V1599Z" stroke="#33366F" stroke-width="30" mask="url(#path-1-outside-1_708_41)"/>
<mask id="path-2-outside-2_708_41" maskUnits="userSpaceOnUse" x="-31" y="256" width="798" height="1535" fill="black">
<rect fill="white" x="-31" y="256" width="798" height="1535"/>
<path d="M-0.500061 1761C195.097 1761 382.683 1683.3 520.991 1544.99C659.299 1406.68 737 1219.1 737 1023.5C737 827.903 659.299 640.317 520.991 502.009C382.683 363.701 195.097 286 -0.499878 286L-0.5 1023.5L-0.500061 1761Z"/>
</mask>
<path d="M-0.500061 1761C195.097 1761 382.683 1683.3 520.991 1544.99C659.299 1406.68 737 1219.1 737 1023.5C737 827.903 659.299 640.317 520.991 502.009C382.683 363.701 195.097 286 -0.499878 286L-0.5 1023.5L-0.500061 1761Z" stroke="#4F5C87" stroke-width="60" mask="url(#path-2-outside-2_708_41)"/>
<path d="M0 1299C36.1135 1299 71.8734 1291.89 105.238 1278.07C138.602 1264.25 168.918 1243.99 194.454 1218.45C219.99 1192.92 240.247 1162.6 254.067 1129.24C267.887 1095.87 275 1060.11 275 1024C275 987.886 267.887 952.127 254.067 918.762C240.247 885.398 219.99 855.082 194.454 829.546C168.918 804.01 138.602 783.753 105.238 769.933C71.8734 756.113 36.1135 749 0 749V1024V1299Z" fill="#F7A265"/>
<path d="M0 1299C36.1135 1299 71.8734 1291.89 105.238 1278.07C138.602 1264.25 168.918 1243.99 194.454 1218.45C219.99 1192.92 240.247 1162.6 254.067 1129.24C267.887 1095.87 275 1060.11 275 1024C275 987.886 267.887 952.127 254.067 918.762C240.247 885.398 219.99 855.082 194.454 829.546C168.918 804.01 138.602 783.753 105.238 769.933C71.8734 756.113 36.1135 749 0 749V1024V1299Z" fill="url(#paint1_radial_708_41)" fill-opacity="0.2"/>
<mask id="path-4-outside-3_708_41" maskUnits="userSpaceOnUse" x="-3" y="-29" width="1056" height="2106" fill="black">
<rect fill="white" x="-3" y="-29" width="1056" height="2106"/>
<path d="M0 2074C278.477 2074 545.549 1963.38 742.462 1766.46C939.375 1569.55 1050 1302.48 1050 1024C1050 745.523 939.375 478.451 742.462 281.538C545.549 84.6248 278.478 -25.9999 0.000244141 -26L0 1024V2074Z"/>
</mask>
<path d="M0 2074C278.477 2074 545.549 1963.38 742.462 1766.46C939.375 1569.55 1050 1302.48 1050 1024C1050 745.523 939.375 478.451 742.462 281.538C545.549 84.6248 278.478 -25.9999 0.000244141 -26L0 1024V2074Z" stroke="#A2C6E7" stroke-opacity="0.78" stroke-width="6" mask="url(#path-4-outside-3_708_41)"/>
</g>
<defs>
<radialGradient id="paint0_radial_708_41" cx="0" cy="0" r="1" gradientUnits="userSpaceOnUse" gradientTransform="translate(36 1332.67) rotate(-21.4581) scale(1508.57 1486.77)">
<stop stop-color="#B7D3ED"/>
<stop offset="1" stop-color="#33366F"/>
</radialGradient>
<radialGradient id="paint1_radial_708_41" cx="0" cy="0" r="1" gradientUnits="userSpaceOnUse" gradientTransform="translate(3.96371e-06 1024) rotate(9.60094) scale(203.855)">
<stop stop-color="#F7BC65"/>
<stop offset="1" stop-color="#F7A265"/>
</radialGradient>
<clipPath id="clip0_708_41">
<rect width="1440" height="2135" fill="white"/>
</clipPath>
</defs>
</svg>
